<svg xmlns="http://www.w3.org/2000/svg"  viewBox="0 0 64 64" width="64px" height="64px" baseProfile="basic"><linearGradient id="YlXXzM91PpE4GwJwOKiCza" x1="15" x2="15" y1="202.362" y2="197.979" gradientTransform="matrix(1 0 0 -1 0 214)" gradientUnits="userSpaceOnUse"><stop offset="0" stop-color="#8ab4ff"/><stop offset="1" stop-color="#e492ff"/></linearGradient><path fill="url(#YlXXzM91PpE4GwJwOKiCza)" d="M12,18v-4.667C12,12.597,12.597,12,13.333,12H18L12,18z"/><linearGradient id="YlXXzM91PpE4GwJwOKiCzb" x1="32" x2="32" y1="207.681" y2="154.301" gradientTransform="matrix(1 0 0 -1 0 214)" gradientUnits="userSpaceOnUse"><stop offset="0" stop-color="#1A6DFF"/><stop offset="1" stop-color="#C822FF"/></linearGradient><path fill="url(#YlXXzM91PpE4GwJwOKiCzb)" d="M51,8H13c-2.757,0-5,2.243-5,5v38c0,2.757,2.243,5,5,5h38c2.757,0,5-2.243,5-5V13	C56,10.243,53.757,8,51,8z M51,54h-2v-2h-2v2h-2v-2h-2v2h-2v-2h-2v2h-2v-2h-2v2h-2v-2h-2v2h-2v-2h-2v2h-2v-2h-2v2h-2v-2h-2v2h-2v-2	h-2v2h-2c-1.654,0-3-1.346-3-3v-2.026C10.838,49.609,11.87,50,13,50h38c1.13,0,2.162-0.391,3-1.026V51C54,52.654,52.654,54,51,54z M54,45c0,1.654-1.346,3-3,3H13c-1.654,0-3-1.346-3-3V13c0-1.654,1.346-3,3-3h38c1.654,0,3,1.346,3,3V45z"/><linearGradient id="YlXXzM91PpE4GwJwOKiCzc" x1="32" x2="32" y1="18" y2="40" gradientUnits="userSpaceOnUse"><stop offset="0" stop-color="#8ab4ff"/><stop offset="1" stop-color="#e492ff"/></linearGradient><path fill="url(#YlXXzM91PpE4GwJwOKiCzc)" d="M29.8,18h4.4c2.43,0,4.4,1.97,4.4,4.4v13.2c0,2.43-1.97,4.4-4.4,4.4h-7.7	c-0.608,0-1.1-0.492-1.1-1.1v-2.2c0-0.608,0.492-1.1,1.1-1.1h7.7v-2.682l-5.467-1.367c-1.959-0.49-3.333-2.25-3.333-4.269V22.4	C25.4,19.97,27.37,18,29.8,18z M33.1,22.4h-2.2c-0.608,0-1.1,0.492-1.1,1.1v2.923c0,0.505,0.344,0.945,0.833,1.067l2.2,0.55	c0.694,0.174,1.367-0.352,1.367-1.067V23.5C34.2,22.892,33.708,22.4,33.1,22.4z"/></svg>