<svg xmlns="http://www.w3.org/2000/svg"  viewBox="0 0 64 64" width="96px" height="96px"><linearGradient id="LnVT~IbGOziPdyc7iYouxa" x1="31" x2="31" y1="27.75" y2="38.003" gradientUnits="userSpaceOnUse" spreadMethod="reflect"><stop offset="0" stop-color="#fcf3fd"/><stop offset="1" stop-color="#6edafc"/></linearGradient><path fill="url(#LnVT~IbGOziPdyc7iYouxa)" d="M31 28A4 4 0 1 0 31 36A4 4 0 1 0 31 28Z"/><linearGradient id="LnVT~IbGOziPdyc7iYouxb" x1="29.958" x2="29.958" y1="5.25" y2="58.279" gradientUnits="userSpaceOnUse" spreadMethod="reflect"><stop offset="0" stop-color="#E090F0"/><stop offset="1" stop-color="#05BDF5"/></linearGradient><path fill="url(#LnVT~IbGOziPdyc7iYouxb)" d="M31,55C18.318,55,8,44.683,8,32S18.318,9,31,9c9.144,0,17.419,5.414,21.084,13.794 l1.832-0.801C49.934,12.885,40.938,7,31,7C17.215,7,6,18.215,6,32s11.215,25,25,25c9.938,0,18.934-5.885,22.917-14.993l-1.832-0.801 C48.42,49.586,40.144,55,31,55z"/><linearGradient id="LnVT~IbGOziPdyc7iYouxc" x1="29.417" x2="29.417" y1="5.25" y2="58.279" gradientUnits="userSpaceOnUse" spreadMethod="reflect"><stop offset="0" stop-color="#E090F0"/><stop offset="1" stop-color="#05BDF5"/></linearGradient><path fill="url(#LnVT~IbGOziPdyc7iYouxc)" d="M31,15c5.686,0,10.971,2.825,14.138,7.557l1.662-1.113C43.261,16.156,37.354,13,31,13 c-10.477,0-19,8.523-19,19s8.523,19,19,19c6.379,0,12.299-3.176,15.834-8.495l-1.666-1.107C42.005,46.158,36.708,49,31,49 c-9.374,0-17-7.626-17-17S21.626,15,31,15z"/><linearGradient id="LnVT~IbGOziPdyc7iYouxd" x1="42" x2="42" y1="5.25" y2="58.279" gradientUnits="userSpaceOnUse" spreadMethod="reflect"><stop offset="0" stop-color="#E090F0"/><stop offset="1" stop-color="#05BDF5"/></linearGradient><path fill="url(#LnVT~IbGOziPdyc7iYouxd)" d="M56.518,29.44l-7.786-4.219c-0.569-0.31-1.239-0.295-1.793,0.036 C46.36,25.603,46,26.248,46,26.941V31H35.899c-0.465-2.279-2.484-4-4.899-4c-2.757,0-5,2.243-5,5s2.243,5,5,5 c2.414,0,4.434-1.721,4.899-4H46v4.059c0,0.693,0.36,1.339,0.938,1.684C47.227,38.914,47.546,39,47.867,39 c0.296,0,0.592-0.073,0.865-0.222l7.786-4.219C57.432,34.064,58,33.084,58,32S57.432,29.936,56.518,29.44z M31,35 c-1.654,0-3-1.346-3-3s1.346-3,3-3s3,1.346,3,3S32.654,35,31,35z M55.565,32.802L47.999,36.9l-0.05-9.828l7.616,4.126 C55.969,31.417,56,31.867,56,32S55.969,32.583,55.565,32.802z"/></svg>