<svg xmlns="http://www.w3.org/2000/svg"  viewBox="0 0 64 64" width="64px" height="64px" baseProfile="basic"><linearGradient id="kL_PO3vxIG1YxY5cntofMa" x1="15" x2="15" y1="-241.638" y2="-246.021" gradientTransform="matrix(1 0 0 -1 0 -230)" gradientUnits="userSpaceOnUse"><stop offset="0" stop-color="#8ab4ff"/><stop offset="1" stop-color="#e492ff"/></linearGradient><path fill="url(#kL_PO3vxIG1YxY5cntofMa)" d="M12,18v-4.667C12,12.597,12.597,12,13.333,12H18L12,18z"/><linearGradient id="kL_PO3vxIG1YxY5cntofMb" x1="32" x2="32" y1="-236.319" y2="-289.699" gradientTransform="matrix(1 0 0 -1 0 -230)" gradientUnits="userSpaceOnUse"><stop offset="0" stop-color="#1A6DFF"/><stop offset="1" stop-color="#C822FF"/></linearGradient><path fill="url(#kL_PO3vxIG1YxY5cntofMb)" d="M51,8H13c-2.757,0-5,2.243-5,5v38c0,2.757,2.243,5,5,5h38c2.757,0,5-2.243,5-5V13	C56,10.243,53.757,8,51,8z M51,54h-2v-2h-2v2h-2v-2h-2v2h-2v-2h-2v2h-2v-2h-2v2h-2v-2h-2v2h-2v-2h-2v2h-2v-2h-2v2h-2v-2h-2v2h-2v-2	h-2v2h-2c-1.654,0-3-1.346-3-3v-2.026C10.838,49.609,11.87,50,13,50h38c1.13,0,2.162-0.391,3-1.026V51C54,52.654,52.654,54,51,54z M54,45c0,1.654-1.346,3-3,3H13c-1.654,0-3-1.346-3-3V13c0-1.654,1.346-3,3-3h38c1.654,0,3,1.346,3,3V45z"/><linearGradient id="kL_PO3vxIG1YxY5cntofMc" x1="33.018" x2="33.018" y1="22" y2="36" gradientUnits="userSpaceOnUse"><stop offset="0" stop-color="#8ab4ff"/><stop offset="1" stop-color="#e492ff"/></linearGradient><path fill="url(#kL_PO3vxIG1YxY5cntofMc)" d="M37.218,24.1v-1.4c0-0.387-0.313-0.7-0.7-0.7h-4.9c-1.546,0-2.8,1.254-2.8,2.8v8.4	c0,1.546,1.254,2.8,2.8,2.8h4.9c0.387,0,0.7-0.313,0.7-0.7v-1.4c0-0.387-0.313-0.7-0.7-0.7h-4.9v-2.8h4.9c0.387,0,0.7-0.313,0.7-0.7	v-1.4c0-0.387-0.313-0.7-0.7-0.7h-4.9v-2.8h4.9C36.905,24.8,37.218,24.487,37.218,24.1z"/><linearGradient id="kL_PO3vxIG1YxY5cntofMd" x1="22.2" x2="22.2" y1="22" y2="36" gradientUnits="userSpaceOnUse"><stop offset="0" stop-color="#8ab4ff"/><stop offset="1" stop-color="#e492ff"/></linearGradient><path fill="url(#kL_PO3vxIG1YxY5cntofMd)" d="M24.3,22H18c-0.387,0-0.7,0.313-0.7,0.7v12.6c0,0.387,0.313,0.7,0.7,0.7h6.3	c1.546,0,2.8-1.254,2.8-2.8v-8.4C27.1,23.254,25.846,22,24.3,22z M24.3,33.033h-4.2v-8.4h4.2V33.033z"/><linearGradient id="kL_PO3vxIG1YxY5cntofMe" x1="43.2" x2="43.2" y1="22" y2="36" gradientUnits="userSpaceOnUse"><stop offset="0" stop-color="#8ab4ff"/><stop offset="1" stop-color="#e492ff"/></linearGradient><path fill="url(#kL_PO3vxIG1YxY5cntofMe)" d="M46.7,36h-4.9c-1.546,0-2.8-1.254-2.8-2.8V22.7c0-0.387,0.313-0.7,0.7-0.7h1.4	c0.387,0,0.7,0.313,0.7,0.7v9.8c0,0.387,0.313,0.7,0.7,0.7h4.2c0.387,0,0.7,0.313,0.7,0.7v1.4C47.4,35.687,47.087,36,46.7,36z"/></svg>