<svg xmlns="http://www.w3.org/2000/svg"  viewBox="0 0 64 64" width="64px" height="64px"><linearGradient id="PQQBbLPIMz7Jbcrsgsy7va" x1="32" x2="32" y1="30.333" y2="57.405" gradientUnits="userSpaceOnUse" spreadMethod="reflect"><stop offset="0" stop-color="#fcf3fd"/><stop offset="1" stop-color="#6edafc"/></linearGradient><path fill="url(#PQQBbLPIMz7Jbcrsgsy7va)" d="M39,44h-3c-0.552,0-1-0.436-1-0.99V31.991C35,31.438,34.552,31,34,31h-4 c-0.552,0-1,0.438-1,0.991V43.01c0,0.553-0.448,0.99-1,0.99h-3c-0.824,0-1.294,1.067-0.8,1.81l6.196,9.316 c0.763,1.147,2.445,1.148,3.208,0.002l6.196-9.319C40.294,45.066,39.824,44,39,44z"/><linearGradient id="PQQBbLPIMz7Jbcrsgsy7vb" x1="32" x2="32" y1="12.5" y2="52.862" gradientUnits="userSpaceOnUse" spreadMethod="reflect"><stop offset="0" stop-color="#E090F0"/><stop offset="1" stop-color="#05BDF5"/></linearGradient><path fill="url(#PQQBbLPIMz7Jbcrsgsy7vb)" d="M56,17.187v-1.153C56,14.367,54.654,13,53,13H11c-1.654,0-3,1.367-3,3.034v1.153 c-1.161,0.42-2,1.535-2,2.847v28C6,49.675,7.346,51,9,51h12v-2H9c-0.561,0-1-0.419-1-0.966v-28C8,19.479,8.458,19,9,19h46 c0.542,0,1,0.479,1,1.034v28C56,48.581,55.561,49,55,49H43v2h12c1.654,0,3-1.325,3-2.966v-28C58,18.722,57.161,17.607,56,17.187z M11,15h42c0.542,0,1,0.479,1,1.034V17H10v-0.966C10,15.479,10.458,15,11,15z"/><linearGradient id="PQQBbLPIMz7Jbcrsgsy7vc" x1="32" x2="32" y1="12.5" y2="52.862" gradientUnits="userSpaceOnUse" spreadMethod="reflect"><stop offset="0" stop-color="#E090F0"/><stop offset="1" stop-color="#05BDF5"/></linearGradient><path fill="url(#PQQBbLPIMz7Jbcrsgsy7vc)" d="M12,39.089V28.962C15.063,28.522,17.491,26,17.929,23h28.14c0.436,3,2.866,5.516,5.931,5.956 v10.148C48.94,39.542,46.513,42,46.072,45H43v2h5v-0.989C48,43.267,50.243,41,53,41h1V27h-1c-2.757,0-5-2.218-5-4.989V21H17 l-1,0.022v1C16,24.785,13.757,27,11,27h-1v14h1c2.36,0,5,2.15,5,5.011V47h5v-2h-3.079C17.455,42,14.967,39.556,12,39.089z"/><linearGradient id="PQQBbLPIMz7Jbcrsgsy7vd" x1="32" x2="32" y1="12.5" y2="52.862" gradientUnits="userSpaceOnUse" spreadMethod="reflect"><stop offset="0" stop-color="#E090F0"/><stop offset="1" stop-color="#05BDF5"/></linearGradient><path fill="url(#PQQBbLPIMz7Jbcrsgsy7vd)" d="M32,27c-3.86,0-7,3-7,7h2c0-3,2.243-5,5-5s5,2,5,5h2C39,30,35.86,27,32,27z"/></svg>