<svg xmlns="http://www.w3.org/2000/svg"  viewBox="0 0 64 64" width="64px" height="64px"><linearGradient id="oWKpjGhF6qnQK2yNv1xGYa" x1="26" x2="26" y1="14.957" y2="20.491" gradientUnits="userSpaceOnUse"><stop offset="0" stop-color="#fcf3fd"/><stop offset="1" stop-color="#6edafc"/></linearGradient><path fill="url(#oWKpjGhF6qnQK2yNv1xGYa)" d="M17.949,20h16.103C34.575,20,35,19.575,35,19.051v-2.103C35,16.425,34.575,16,34.051,16	H17.949C17.425,16,17,16.425,17,16.949v2.103C17,19.575,17.425,20,17.949,20z"/><linearGradient id="oWKpjGhF6qnQK2yNv1xGYb" x1="26" x2="26" y1="5.979" y2="58.301" gradientUnits="userSpaceOnUse"><stop offset="0" stop-color="#E090F0"/><stop offset="1" stop-color="#05BDF5"/></linearGradient><rect width="18" height="2" x="17" y="23" fill="url(#oWKpjGhF6qnQK2yNv1xGYb)"/><linearGradient id="oWKpjGhF6qnQK2yNv1xGYc" x1="26" x2="26" y1="5.979" y2="58.301" gradientUnits="userSpaceOnUse"><stop offset="0" stop-color="#E090F0"/><stop offset="1" stop-color="#05BDF5"/></linearGradient><rect width="18" height="2" x="17" y="28" fill="url(#oWKpjGhF6qnQK2yNv1xGYc)"/><linearGradient id="oWKpjGhF6qnQK2yNv1xGYd" x1="26" x2="26" y1="5.979" y2="58.301" gradientUnits="userSpaceOnUse"><stop offset="0" stop-color="#E090F0"/><stop offset="1" stop-color="#05BDF5"/></linearGradient><rect width="18" height="2" x="17" y="33" fill="url(#oWKpjGhF6qnQK2yNv1xGYd)"/><linearGradient id="oWKpjGhF6qnQK2yNv1xGYe" x1="18" x2="18" y1="5.979" y2="58.301" gradientUnits="userSpaceOnUse"><stop offset="0" stop-color="#E090F0"/><stop offset="1" stop-color="#05BDF5"/></linearGradient><rect width="2" height="3" x="17" y="39" fill="url(#oWKpjGhF6qnQK2yNv1xGYe)"/><linearGradient id="oWKpjGhF6qnQK2yNv1xGYf" x1="22" x2="22" y1="5.979" y2="58.301" gradientUnits="userSpaceOnUse"><stop offset="0" stop-color="#E090F0"/><stop offset="1" stop-color="#05BDF5"/></linearGradient><rect width="2" height="3" x="21" y="39" fill="url(#oWKpjGhF6qnQK2yNv1xGYf)"/><linearGradient id="oWKpjGhF6qnQK2yNv1xGYg" x1="26" x2="26" y1="5.979" y2="58.301" gradientUnits="userSpaceOnUse"><stop offset="0" stop-color="#E090F0"/><stop offset="1" stop-color="#05BDF5"/></linearGradient><rect width="2" height="3" x="25" y="39" fill="url(#oWKpjGhF6qnQK2yNv1xGYg)"/><linearGradient id="oWKpjGhF6qnQK2yNv1xGYh" x1="32" x2="32" y1="5.979" y2="58.301" gradientUnits="userSpaceOnUse"><stop offset="0" stop-color="#E090F0"/><stop offset="1" stop-color="#05BDF5"/></linearGradient><path fill="url(#oWKpjGhF6qnQK2yNv1xGYh)" d="M58,32c0-4.469-2.948-8.261-7-9.539V9.157c0-0.813-0.484-1.541-1.233-1.851 c-0.743-0.309-1.594-0.143-2.167,0.428L46.102,9.23l-2.524-1.843c-0.704-0.516-1.651-0.517-2.355-0.001l-2.62,1.917l-2.624-1.916 c-0.703-0.516-1.65-0.517-2.355-0.001l-2.62,1.917l-2.625-1.916c-0.703-0.516-1.65-0.517-2.355-0.001l-2.62,1.917L20.78,7.387 c-0.703-0.516-1.65-0.517-2.355-0.001l-2.521,1.843L14.4,7.734c-0.574-0.571-1.425-0.739-2.167-0.428 C11.484,7.616,11,8.344,11,9.157v37.844H6v5c0,2.757,2.244,5,5,5h34.999C48.756,57,51,54.757,51,52V41.539 C55.052,40.261,58,36.469,58,32z M11,55c-1.654,0-3-1.346-3-3v-3h33v3c0,1.125,0.373,2,1.001,3H11z M49,52c0,1.654-1.346,3-3,3 s-3-1.346-3-3v-5H13v-9h-0.001L12.99,9.151l1.502,1.495c0.7,0.696,1.786,0.779,2.586,0.198L19.598,9l2.625,1.917 c0.706,0.515,1.65,0.513,2.354,0L27.197,9l2.626,1.917c0.705,0.514,1.648,0.514,2.353,0L34.797,9l2.625,1.917 c0.706,0.515,1.65,0.513,2.354,0L42.396,9l2.526,1.844c0.797,0.582,1.885,0.499,2.585-0.198L49,9.157v12.894 C48.671,22.018,48.338,22,48,22c-5.514,0-10,4.486-10,10s4.486,10,10,10c0.338,0,0.671-0.018,1-0.051V52z M48,40 c-4.411,0-8-3.589-8-8s3.589-8,8-8s8,3.589,8,8S52.411,40,48,40z"/><linearGradient id="oWKpjGhF6qnQK2yNv1xGYi" x1="48" x2="48" y1="5.979" y2="58.301" gradientUnits="userSpaceOnUse"><stop offset="0" stop-color="#E090F0"/><stop offset="1" stop-color="#05BDF5"/></linearGradient><rect width="8" height="2" x="44" y="31" fill="url(#oWKpjGhF6qnQK2yNv1xGYi)"/></svg>