<svg xmlns="http://www.w3.org/2000/svg"  viewBox="0 0 64 64" width="64px" height="64px"><linearGradient id="udDdPMl0n3GePQ7g_ihqQa" x1="32" x2="32" y1="4.75" y2="59.764" gradientUnits="userSpaceOnUse" spreadMethod="reflect"><stop offset="0" stop-color="#E090F0"/><stop offset="1" stop-color="#05BDF5"/></linearGradient><path fill="url(#udDdPMl0n3GePQ7g_ihqQa)" d="M32,58C17.664,58,6,46.336,6,32S17.664,6,32,6s26,11.664,26,26S46.336,58,32,58z M32,8 C18.767,8,8,18.767,8,32s10.767,24,24,24s24-10.767,24-24S45.233,8,32,8z"/><linearGradient id="udDdPMl0n3GePQ7g_ihqQb" x1="33.165" x2="33.165" y1="16" y2="48.043" gradientUnits="userSpaceOnUse" spreadMethod="reflect"><stop offset="0" stop-color="#fcf3fd"/><stop offset="1" stop-color="#6edafc"/></linearGradient><path fill="url(#udDdPMl0n3GePQ7g_ihqQb)" d="M39.709,47.02L25.793,33.104c-0.781-0.781-0.781-2.051,0-2.832L39.084,16.98l1.414,1.414 L27.207,31.686l13.916,13.92L39.709,47.02z"/><linearGradient id="udDdPMl0n3GePQ7g_ihqQc" x1="32" x2="32" y1="4.75" y2="59.764" gradientUnits="userSpaceOnUse" spreadMethod="reflect"><stop offset="0" stop-color="#E090F0"/><stop offset="1" stop-color="#05BDF5"/></linearGradient><path fill="url(#udDdPMl0n3GePQ7g_ihqQc)" d="M42.541,47h-8.496c-0.535,0-1.037-0.208-1.414-0.586L20.337,34.12v0v0 c-0.566-0.566-0.878-1.319-0.878-2.12c0-0.801,0.312-1.554,0.878-2.121l12.294-12.294C33.008,17.208,33.51,17,34.045,17h8.496 c0.811,0,1.536,0.484,1.846,1.234c0.311,0.75,0.141,1.604-0.433,2.178L33.071,31.294c-0.389,0.389-0.389,1.023,0,1.412 l10.882,10.882c0.574,0.574,0.744,1.428,0.433,2.178C44.077,46.516,43.352,47,42.541,47z M42.54,18.998L34.045,19L21.751,31.294 c-0.189,0.189-0.292,0.439-0.292,0.706s0.104,0.517,0.292,0.706v0L34.046,45h8.495L31.657,34.12c-1.169-1.169-1.169-3.071,0-4.24 L42.54,18.998z"/></svg>