<svg xmlns="http://www.w3.org/2000/svg"  viewBox="0 0 64 64" width="64px" height="64px"><linearGradient id="pB2JiVDp4nbhVahsl9jana" x1="32" x2="32" y1="18.111" y2="45.889" gradientUnits="userSpaceOnUse"><stop offset="0" stop-color="#fcf3fd"/><stop offset="1" stop-color="#6edafc"/></linearGradient><circle cx="32" cy="32" r="13.889" fill="url(#pB2JiVDp4nbhVahsl9jana)"/><linearGradient id="pB2JiVDp4nbhVahsl9janb" x1="32" x2="32" y1="17" y2="47" gradientUnits="userSpaceOnUse"><stop offset="0" stop-color="#E090F0"/><stop offset="1" stop-color="#05BDF5"/></linearGradient><path fill="url(#pB2JiVDp4nbhVahsl9janb)" d="M32,47c-8.271,0-15-6.729-15-15s6.729-15,15-15s15,6.729,15,15S40.271,47,32,47z M32,19.222	c-7.046,0-12.778,5.732-12.778,12.778S24.954,44.778,32,44.778S44.778,39.046,44.778,32S39.046,19.222,32,19.222z"/><linearGradient id="pB2JiVDp4nbhVahsl9janc" x1="27.319" x2="35.711" y1="10.642" y2="10.642" gradientTransform="rotate(90 32 32.485)" gradientUnits="userSpaceOnUse"><stop offset="0" stop-color="#fcf3fd"/><stop offset="1" stop-color="#6edafc"/></linearGradient><path fill="url(#pB2JiVDp4nbhVahsl9janc)" d="M55.858,36.196l-4.303-0.007c0.951-3.522,0.95-4.853-0.003-8.385h4.121	c0.298,1.529,0.459,3.107,0.459,4.721C56.132,33.773,56.037,34.998,55.858,36.196z"/><linearGradient id="pB2JiVDp4nbhVahsl9jand" x1="28.372" x2="34.501" y1="7.098" y2="13.228" gradientTransform="rotate(45.001 32 32.484)" gradientUnits="userSpaceOnUse"><stop offset="0" stop-color="#fcf3fd"/><stop offset="1" stop-color="#6edafc"/></linearGradient><path fill="url(#pB2JiVDp4nbhVahsl9jand)" d="M51.826,17.772l-2.951,2.865c-1.818-3.163-2.759-4.103-5.931-5.927l2.818-2.742	c1.292,0.871,2.521,1.872,3.663,3.014C50.307,15.865,51.106,16.798,51.826,17.772z"/><linearGradient id="pB2JiVDp4nbhVahsl9jane" x1="28.948" x2="35.228" y1="14.063" y2="7.782" gradientTransform="rotate(134.999 32.105 32.357)" gradientUnits="userSpaceOnUse"><stop offset="0" stop-color="#fcf3fd"/><stop offset="1" stop-color="#6edafc"/></linearGradient><path fill="url(#pB2JiVDp4nbhVahsl9jane)" d="M45.804,51.942l-2.865-2.951c3.163-1.818,4.103-2.759,5.927-5.931l2.742,2.818	c-0.871,1.292-1.872,2.521-3.014,3.663C47.712,50.423,46.778,51.222,45.804,51.942z"/><linearGradient id="pB2JiVDp4nbhVahsl9janf" x1="32" x2="32" y1="8.034" y2="11.894" gradientUnits="userSpaceOnUse"><stop offset="0" stop-color="#fcf3fd"/><stop offset="1" stop-color="#6edafc"/></linearGradient><path fill="url(#pB2JiVDp4nbhVahsl9janf)" d="M32.52,8.034c-0.17,0-0.35,0-0.52,0.01c-0.17-0.01-0.35-0.01-0.52-0.01	c-1.25,0-2.48,0.09-3.68,0.27l0.01,3.59c1.76-0.47,2.97-0.71,4.19-0.71s2.43,0.24,4.19,0.71l0.01-3.59	C35,8.124,33.77,8.034,32.52,8.034z"/><linearGradient id="pB2JiVDp4nbhVahsl9jang" x1="32.092" x2="32.092" y1="52.018" y2="56.069" gradientUnits="userSpaceOnUse"><stop offset="0" stop-color="#fcf3fd"/><stop offset="1" stop-color="#6edafc"/></linearGradient><path fill="url(#pB2JiVDp4nbhVahsl9jang)" d="M36.216,52.018c-1.76,0.48-2.951,0.814-4.171,0.814c-1.22,0-2.394-0.27-4.154-0.75v3.716	c1.2,0.18,2.43,0.27,3.68,0.27c0.17,0,0.35,0,0.52-0.01c0.17,0.01,0.35,0.01,0.52,0.01c1.25,0,2.48-0.09,3.68-0.27L36.216,52.018z"/><linearGradient id="pB2JiVDp4nbhVahsl9janh" x1="27.242" x2="35.634" y1="36.706" y2="36.706" gradientTransform="matrix(0 1 1 0 -26.484 .485)" gradientUnits="userSpaceOnUse"><stop offset="0" stop-color="#fcf3fd"/><stop offset="1" stop-color="#6edafc"/></linearGradient><path fill="url(#pB2JiVDp4nbhVahsl9janh)" d="M8.206,36.12l4.303-0.007c-0.951-3.522-0.95-4.853,0.003-8.385H8.39	c-0.298,1.529-0.459,3.107-0.459,4.721C7.932,33.696,8.027,34.922,8.206,36.12z"/><linearGradient id="pB2JiVDp4nbhVahsl9jani" x1="9.987" x2="16.117" y1="25.483" y2="31.612" gradientTransform="scale(-1 1) rotate(45 13 -13.385)" gradientUnits="userSpaceOnUse"><stop offset="0" stop-color="#fcf3fd"/><stop offset="1" stop-color="#6edafc"/></linearGradient><path fill="url(#pB2JiVDp4nbhVahsl9jani)" d="M12.174,17.772l2.951,2.865c1.818-3.163,2.759-4.103,5.931-5.927l-2.818-2.742	c-1.292,0.871-2.521,1.872-3.663,3.014C13.693,15.865,12.894,16.798,12.174,17.772z"/><linearGradient id="pB2JiVDp4nbhVahsl9janj" x1="47.391" x2="53.672" y1="32.373" y2="26.092" gradientTransform="scale(1 -1) rotate(-45 -59.116 31.64)" gradientUnits="userSpaceOnUse"><stop offset="0" stop-color="#fcf3fd"/><stop offset="1" stop-color="#6edafc"/></linearGradient><path fill="url(#pB2JiVDp4nbhVahsl9janj)" d="M18.184,52.036l2.865-2.951c-3.163-1.818-4.103-2.759-5.927-5.931l-2.742,2.818	c0.871,1.292,1.872,2.521,3.014,3.663C16.277,50.517,17.21,51.316,18.184,52.036z"/><linearGradient id="pB2JiVDp4nbhVahsl9jank" x1="32" x2="32" y1="6" y2="58" gradientUnits="userSpaceOnUse"><stop offset="0" stop-color="#E090F0"/><stop offset="1" stop-color="#05BDF5"/></linearGradient><path fill="url(#pB2JiVDp4nbhVahsl9jank)" d="M32.5,6c-0.17,0-0.34,0-0.5,0.01C31.84,6,31.67,6,31.5,6C17.44,6,6,17.664,6,32	s11.44,26,25.5,26c0.17,0,0.34,0,0.5-0.01C32.16,58,32.33,58,32.5,58C46.56,58,58,46.336,58,32S46.56,6,32.5,6z M51.48,17.899	l-2.64,2.682c-1.73-3.069-2.63-3.987-5.65-5.751l2.55-2.61C47.96,13.769,49.9,15.686,51.48,17.899z M31.5,8.039	c0.17,0,0.33,0,0.5,0.01c0.17-0.01,0.33-0.01,0.5-0.01c1.19,0,2.36,0.092,3.5,0.265l-0.01,3.487c-1.68-0.469-2.84-0.693-3.99-0.693	s-2.31,0.224-3.99,0.693L28,8.304C29.14,8.131,30.31,8.039,31.5,8.039z M18.26,12.22l2.55,2.61c-3.02,1.764-3.92,2.682-5.65,5.751	l-2.64-2.682C14.1,15.686,16.04,13.769,18.26,12.22z M8,32c0-1.387,0.12-2.753,0.35-4.078h3.83c-0.91,3.436-0.91,4.721,0,8.147	l-3.83,0.01C8.12,34.753,8,33.387,8,32z M12.52,46.101l2.64-2.692c1.73,3.079,2.63,3.997,5.64,5.761l-2.55,2.61	C16.04,50.231,14.1,48.304,12.52,46.101z M36,55.696c-1.14,0.173-2.31,0.265-3.5,0.265c-0.17,0-0.33,0-0.5-0.01	c-0.17,0.01-0.33,0.01-0.5,0.01c-1.19,0-2.36-0.092-3.5-0.265v-3.487c1.68,0.469,2.84,0.693,4,0.693s2.32-0.224,4-0.693V55.696z M45.75,51.78l-2.55-2.61c3.01-1.764,3.91-2.682,5.64-5.761l2.64,2.692C49.9,48.304,47.96,50.231,45.75,51.78z M52.62,44.368	l-2.36-2.406c-0.44-0.449-1.06-0.663-1.68-0.571c-0.62,0.082-1.16,0.449-1.47,1.009c-1.56,2.763-2.2,3.416-4.91,5.006	c-0.55,0.316-0.91,0.867-0.99,1.499c-0.08,0.642,0.12,1.264,0.56,1.713L44,52.882c-1.86,1.071-3.87,1.886-6,2.406v-3.079	c0-0.642-0.29-1.234-0.78-1.621c-0.5-0.387-1.14-0.52-1.75-0.347c-1.51,0.418-2.49,0.622-3.47,0.622s-1.96-0.204-3.47-0.622	c-0.61-0.173-1.25-0.041-1.75,0.347C26.29,50.975,26,51.566,26,52.209v3.079c-2.13-0.52-4.14-1.336-6-2.406l2.23-2.264	c0.44-0.449,0.64-1.071,0.56-1.713c-0.08-0.632-0.44-1.183-0.99-1.499c-2.71-1.591-3.35-2.243-4.91-5.006	c-0.31-0.561-0.85-0.928-1.47-1.009c-0.62-0.092-1.24,0.122-1.68,0.571l-2.36,2.406c-1.14-1.917-2.02-4.027-2.6-6.25h3.4	c0.63,0,1.21-0.296,1.59-0.795c0.38-0.51,0.51-1.162,0.34-1.784c-0.81-3.079-0.81-3.997,0-7.076c0.17-0.622,0.04-1.275-0.34-1.784	c-0.38-0.5-0.96-0.795-1.59-0.795h-3.4c0.58-2.223,1.46-4.333,2.6-6.25l2.36,2.406c0.38,0.377,0.88,0.591,1.41,0.591	c0.09,0,0.18-0.01,0.27-0.02c0.62-0.082,1.16-0.449,1.47-1.009c1.56-2.763,2.2-3.416,4.91-5.006c0.55-0.316,0.91-0.867,0.99-1.499	c0.08-0.642-0.12-1.264-0.56-1.713L20,11.118c1.86-1.071,3.87-1.886,6-2.406v3.079c0,0.642,0.29,1.234,0.78,1.621	c0.36,0.275,0.78,0.418,1.22,0.418c0.18,0,0.35-0.02,0.53-0.071c1.51-0.418,2.49-0.622,3.47-0.622s1.96,0.204,3.47,0.622	c0.18,0.051,0.35,0.071,0.53,0.071c0.44,0,0.86-0.143,1.22-0.418c0.49-0.387,0.78-0.979,0.78-1.621V8.712	c2.13,0.52,4.14,1.336,6,2.406l-2.23,2.264c-0.44,0.449-0.64,1.071-0.56,1.713c0.08,0.632,0.44,1.183,0.99,1.499	c2.71,1.591,3.35,2.243,4.91,5.006c0.31,0.561,0.85,0.928,1.47,1.009c0.09,0.01,0.18,0.02,0.27,0.02c0.53,0,1.03-0.214,1.41-0.591	l2.36-2.406c1.14,1.917,2.02,4.027,2.6,6.25h-3.4c-0.63,0-1.21,0.296-1.59,0.795c-0.38,0.51-0.51,1.162-0.34,1.784	c0.81,3.079,0.81,3.997,0,7.076c-0.17,0.622-0.04,1.275,0.34,1.784c0.38,0.5,0.96,0.795,1.59,0.795h3.4	C54.64,40.34,53.76,42.451,52.62,44.368z M51.82,36.068c0.91-3.426,0.91-4.711,0-8.147h3.83C55.88,29.247,56,30.613,56,32	c0,1.387-0.12,2.753-0.35,4.078L51.82,36.068z"/></svg>