<svg xmlns="http://www.w3.org/2000/svg"  viewBox="0 0 64 64" width="64px" height="64px" baseProfile="basic"><linearGradient id="Ad9XExfImJofhVjX3UdGZa" x1="15" x2="15" y1="202.362" y2="197.979" gradientTransform="matrix(1 0 0 -1 0 214)" gradientUnits="userSpaceOnUse"><stop offset="0" stop-color="#8ab4ff"/><stop offset="1" stop-color="#e492ff"/></linearGradient><path fill="url(#Ad9XExfImJofhVjX3UdGZa)" d="M12,18v-4.667C12,12.597,12.597,12,13.333,12H18L12,18z"/><linearGradient id="Ad9XExfImJofhVjX3UdGZb" x1="32" x2="32" y1="207.681" y2="154.301" gradientTransform="matrix(1 0 0 -1 0 214)" gradientUnits="userSpaceOnUse"><stop offset="0" stop-color="#1A6DFF"/><stop offset="1" stop-color="#C822FF"/></linearGradient><path fill="url(#Ad9XExfImJofhVjX3UdGZb)" d="M51,8H13c-2.757,0-5,2.243-5,5v38c0,2.757,2.243,5,5,5h38c2.757,0,5-2.243,5-5V13	C56,10.243,53.757,8,51,8z M51,54h-2v-2h-2v2h-2v-2h-2v2h-2v-2h-2v2h-2v-2h-2v2h-2v-2h-2v2h-2v-2h-2v2h-2v-2h-2v2h-2v-2h-2v2h-2v-2	h-2v2h-2c-1.654,0-3-1.346-3-3v-2.026C10.838,49.609,11.87,50,13,50h38c1.13,0,2.162-0.391,3-1.026V51C54,52.654,52.654,54,51,54z M54,45c0,1.654-1.346,3-3,3H13c-1.654,0-3-1.346-3-3V13c0-1.654,1.346-3,3-3h38c1.654,0,3,1.346,3,3V45z"/><linearGradient id="Ad9XExfImJofhVjX3UdGZc" x1="32" x2="32" y1="18" y2="40" gradientUnits="userSpaceOnUse"><stop offset="0" stop-color="#8ab4ff"/><stop offset="1" stop-color="#e492ff"/></linearGradient><path fill="url(#Ad9XExfImJofhVjX3UdGZc)" d="M34.2,40h-4.4c-2.43,0-4.4-1.97-4.4-4.4V22.4c0-2.43,1.97-4.4,4.4-4.4h7.7	c0.608,0,1.1,0.492,1.1,1.1v2.2c0,0.608-0.492,1.1-1.1,1.1h-7.7v2.682l5.467,1.367c1.959,0.49,3.333,2.25,3.333,4.269V35.6	C38.6,38.03,36.63,40,34.2,40z M30.9,35.6h2.2c0.608,0,1.1-0.492,1.1-1.1v-2.923c0-0.505-0.344-0.945-0.833-1.067l-2.2-0.55	c-0.694-0.174-1.367,0.352-1.367,1.067V34.5C29.8,35.108,30.292,35.6,30.9,35.6z"/></svg>