<svg xmlns="http://www.w3.org/2000/svg"  viewBox="0 0 64 64" width="64px" height="64px"><linearGradient id="MkobZ_w~Se~5~0hX2TINaa" x1="47" x2="47" y1="31.833" y2="46.113" gradientUnits="userSpaceOnUse" spreadMethod="reflect"><stop offset="0" stop-color="#fcf3fd"/><stop offset="1" stop-color="#6edafc"/></linearGradient><path fill="url(#MkobZ_w~Se~5~0hX2TINaa)" d="M47 32A7 7 0 1 0 47 46A7 7 0 1 0 47 32Z"/><linearGradient id="MkobZ_w~Se~5~0hX2TINab" x1="32" x2="32" y1="6.5" y2="57.72" gradientUnits="userSpaceOnUse" spreadMethod="reflect"><stop offset="0" stop-color="#E090F0"/><stop offset="1" stop-color="#05BDF5"/></linearGradient><path fill="url(#MkobZ_w~Se~5~0hX2TINab)" d="M56,39c0,4.962-4.037,9-9,9s-9-4.038-9-9s4.037-9,9-9c2.372,0,4.609,0.914,6.302,2.574 l1.4-1.428c-1.334-1.309-2.948-2.232-4.702-2.727v-5.532c0-1.525-1.163-2.808-2.706-2.985C41.297,19.217,35.885,14.84,33.825,9.01 C33.399,7.808,32.264,7,30.997,7h-5.994c-1.267,0-2.402,0.808-2.829,2.011c-2.059,5.829-7.471,10.206-13.468,10.892 C7.163,20.08,6,21.363,6,22.888v11.621c0,12.111,9.624,22.198,21.454,22.485C27.637,56.998,27.817,57,27.998,57 c6.282,0,12.195-2.65,16.384-7.328C45.223,49.878,46.096,50,47,50c6.065,0,11-4.935,11-11H56z M27.503,54.994 C16.749,54.733,8,45.543,8,34.508V22.888c0-0.516,0.393-0.936,0.933-0.998c6.74-0.771,12.819-5.679,15.127-12.213 C24.203,9.272,24.582,9,25.003,9h5.994c0.421,0,0.8,0.272,0.942,0.677c2.309,6.534,8.388,11.442,15.128,12.213 C47.607,21.952,48,22.372,48,22.888v5.161C47.669,28.018,47.336,28,47,28c-6.065,0-11,4.935-11,11c0,4.394,2.596,8.184,6.33,9.945 C38.448,52.937,33.108,55.128,27.503,54.994z"/><linearGradient id="MkobZ_w~Se~5~0hX2TINac" x1="48.978" x2="48.978" y1="6.5" y2="57.72" gradientUnits="userSpaceOnUse" spreadMethod="reflect"><stop offset="0" stop-color="#E090F0"/><stop offset="1" stop-color="#05BDF5"/></linearGradient><path fill="url(#MkobZ_w~Se~5~0hX2TINac)" d="M46.371,40.706l-3.664-3.664l-1.414,1.414l3.664,3.664c0.584,0.584,1.354,0.879,2.125,0.879 c0.712,0,1.425-0.251,1.994-0.757l7.588-6.745l-1.328-1.495l-7.588,6.745C47.353,41.1,46.748,41.083,46.371,40.706z"/><linearGradient id="MkobZ_w~Se~5~0hX2TINad" x1="19.5" x2="19.5" y1="6.5" y2="57.72" gradientUnits="userSpaceOnUse" spreadMethod="reflect"><stop offset="0" stop-color="#E090F0"/><stop offset="1" stop-color="#05BDF5"/></linearGradient><path fill="url(#MkobZ_w~Se~5~0hX2TINad)" d="M24.933,14.895c-3.318,4.99-8.729,8.73-14.12,9.76L10,24.81V35c0,9.925,8.075,18,18,18h1V14 h-2.406C25.926,14,25.305,14.335,24.933,14.895z M27,50.969C18.642,50.451,12,43.487,12,35v-8.555 c5.625-1.33,11.158-5.271,14.594-10.446H27V50.969z"/></svg>