<svg xmlns="http://www.w3.org/2000/svg"  viewBox="0 0 64 64" width="64px" height="64px"><linearGradient id="IXVVk9Abp0jW4W7UAcYBva" x1="32" x2="32" y1="20" y2="44" gradientUnits="userSpaceOnUse"><stop offset="0" stop-color="#fcf3fd"/><stop offset="1" stop-color="#6edafc"/></linearGradient><path fill="url(#IXVVk9Abp0jW4W7UAcYBva)" d="M30,28c0,4.418-3.582,8-8,8s-8-3.582-8-8s3.582-8,8-8S30,23.582,30,28z M49,27H36v2h13V27z M50,42H32v2h18V42z M49,33H36v2h13V33z"/><linearGradient id="IXVVk9Abp0jW4W7UAcYBvb" x1="32" x2="32" y1="12" y2="52" gradientUnits="userSpaceOnUse"><stop offset="0" stop-color="#E090F0"/><stop offset="1" stop-color="#05BDF5"/></linearGradient><path fill="url(#IXVVk9Abp0jW4W7UAcYBvb)" d="M54,52H10c-2.206,0-4-1.794-4-4V16c0-2.206,1.794-4,4-4h44c2.206,0,4,1.794,4,4v32 C58,50.206,56.206,52,54,52z M10,14c-1.103,0-2,0.897-2,2v32c0,1.103,0.897,2,2,2h44c1.103,0,2-0.897,2-2V16c0-1.103-0.897-2-2-2 H10z M49,23H36v-2h13V23z M22,20.069V27c0,0.552,0.448,1,1,1h6.931c0.6,0,1.074-0.528,1-1.123c-0.507-4.073-3.735-7.3-7.807-7.807 C22.528,18.995,22,19.469,22,20.069z M31,40v2H14v2h17v2h2v-6H31z"/></svg>