<svg xmlns="http://www.w3.org/2000/svg"  viewBox="0 0 64 64" width="64px" height="64px"><linearGradient id="ByoKFWbMBFbTJQqZ81EAqa" x1="30.501" x2="30.501" y1="39.622" y2="50.335" gradientUnits="userSpaceOnUse" spreadMethod="reflect"><stop offset="0" stop-color="#fcf3fd"/><stop offset="1" stop-color="#6edafc"/></linearGradient><path fill="url(#ByoKFWbMBFbTJQqZ81EAqa)" d="M35.002,42c-0.912-1.216-2.365-2.002-4.002-2.002c-2.761,0-5,2.239-5,5s2.239,5,5,5 c0.711,0,1.388-0.149,2-0.416l-2.998-4.584L35.002,42z"/><linearGradient id="ByoKFWbMBFbTJQqZ81EAqb" x1="32" x2="32" y1="7.999" y2="54.784" gradientUnits="userSpaceOnUse" spreadMethod="reflect"><stop offset="0" stop-color="#E090F0"/><stop offset="1" stop-color="#05BDF5"/></linearGradient><path fill="url(#ByoKFWbMBFbTJQqZ81EAqb)" d="M55,13h-4c-1.654,0-3,1.343-3,2.997V18H37.209l-17.582-7.657 c-1.95-0.848-4.3-0.053-5.231,1.778c-0.454,0.892-0.521,1.897-0.187,2.835c0.351,0.984,1.092,1.769,2.087,2.206L18.198,18H17h-3h-4 c-2.206,0-4,1.794-4,4s1.794,4,4,4h4h3h9.178C22.515,29,20,32.365,20,36.999c0,2.498,0.713,4.914,2.057,7.009 C22.021,44.333,22,44.663,22,44.998c0,4.963,4.037,9,9,9c3.686,0,6.962-2.208,8.346-5.625l-0.04-0.016 C43.293,46.133,46,41.877,46,36.997V35h2.185c0.414,1,1.514,2,2.815,2h4c1.654,0,3-1.348,3-3.003v-18C58,14.343,56.654,13,55,13z M17.102,15.332c-0.486-0.214-0.845-0.587-1.009-1.047c-0.147-0.414-0.117-0.861,0.084-1.256c0.463-0.906,1.651-1.286,2.651-0.851 L32.198,18h-9.035L17.102,15.332z M8,22c0-1.103,0.897-2,2-2h0.556C10.212,21,10,21.268,10,22s0.212,2,0.556,2H10 C8.897,24,8,23.103,8,22z M31,51.997c-3.859,0-7-3.141-7-7s3.141-7,7-7c2.126,0,4.123,0.983,5.441,2.611 c-0.898,0.856-2.106,1.389-3.441,1.389c-2.206,0-4,1.794-4,4s1.794,4,4,4c1.144,0,2.248-0.163,3.306-0.442 C35.001,51.078,33.089,51.997,31,51.997z M37.613,38.92c-1.688-1.829-4.076-2.923-6.613-2.923c-1.034,0-2.024,0.184-2.95,0.507 c0.252-2.523,2.362-4.507,4.95-4.507c2.757,0,5,2.243,5,5C38,37.679,37.861,38.328,37.613,38.92z M44,33v1.997v2 c0,6.065-4.935,11-11,11c-1.103,0-2-0.897-2-2s0.897-2,2-2c3.859,0,7-3.141,7-7s-3.141-7-7-7s-7,3.141-7,7 c0,0.201-0.035,0.398-0.094,0.588c-1.319,0.909-2.378,2.164-3.061,3.629C22.293,39.885,22,38.458,22,36.997c0-6.065,5-11,11-11V24 c-0.337,0-16,0-16,0h-3c-1.103,0-2-0.897-2-2s0.897-2,2-2h3h31v13h-2H44z M56,33.997C56,34.549,55.552,35,55,35h-1v-6h-2v6h-1 c-0.552,0-1-0.451-1-1.003v-18C50,15.446,50.448,15,51,15h4c0.552,0,1,0.446,1,0.997V33.997z"/></svg>