<svg xmlns="http://www.w3.org/2000/svg"  viewBox="0 0 64 64" width="64px" height="64px"><linearGradient id="x7~3hMPhOk8T~ohsNIvKTa" x1="32.106" x2="32.106" y1="9.681" y2="55.676" gradientUnits="userSpaceOnUse"><stop offset="0" stop-color="#fcf3fd"/><stop offset="1" stop-color="#6edafc"/></linearGradient><path fill="url(#x7~3hMPhOk8T~ohsNIvKTa)" d="M35,10.21v6.082c7.358,1.407,12.964,7.878,13,15.633C48.041,40.748,40.896,47.959,31.999,48	c-7.781,0-14.291-5.613-15.704-13h-6.084c1.473,10.708,10.695,18.999,21.786,19h0.105c5.876-0.027,11.39-2.342,15.526-6.517	c4.136-4.174,6.398-9.71,6.371-15.586C53.948,20.84,45.667,11.676,35,10.21z"/><linearGradient id="x7~3hMPhOk8T~ohsNIvKTb" x1="32" x2="32" y1="6.362" y2="56.559" gradientUnits="userSpaceOnUse"><stop offset="0" stop-color="#E090F0"/><stop offset="1" stop-color="#05BDF5"/></linearGradient><path fill="url(#x7~3hMPhOk8T~ohsNIvKTb)" d="M50.299,13.529C45.395,8.671,38.902,6,32.004,6c-0.041,0-0.083,0-0.125,0 C17.542,6.067,5.933,17.785,6,32.121C6.066,46.416,17.718,58,31.998,58c0.041,0,0.082,0,0.123,0 C46.458,57.933,58.067,46.215,58,31.879C57.968,24.934,55.232,18.417,50.299,13.529z M31.944,20c0.019,0,0.038,0,0.057,0 c3.185,0,6.182,1.232,8.445,3.476c2.276,2.256,3.539,5.264,3.554,8.469s-1.22,6.225-3.476,8.502 c-2.256,2.276-5.264,3.539-8.469,3.554c-0.019,0-0.038,0-0.057,0c-3.185,0-6.182-1.232-8.445-3.476 c-2.276-2.256-3.539-5.264-3.554-8.469s1.22-6.225,3.476-8.502C25.731,21.277,28.739,20.015,31.944,20z M31,8.027V18.05 c-3.385,0.238-6.535,1.663-8.945,4.097c-2.38,2.402-3.773,5.514-4.008,8.854H8.023C8.535,18.573,18.548,8.541,31,8.027z M32.111,56 c-0.038,0-0.075,0-0.113,0C19.115,55.999,8.555,45.783,8.027,33H18.05c0.238,3.385,1.664,6.535,4.097,8.945 C24.787,44.562,28.284,46,31.999,46c0.021,0,0.044,0,0.066,0c3.739-0.018,7.248-1.49,9.88-4.146s4.072-6.179,4.055-9.919 c-0.018-3.739-1.49-7.248-4.146-9.88c-2.402-2.38-5.515-3.772-8.854-4.006V8.024c5.994,0.243,11.602,2.676,15.892,6.926 C53.445,19.462,55.97,25.478,56,31.889C56.062,45.122,45.346,55.938,32.111,56z"/><linearGradient id="x7~3hMPhOk8T~ohsNIvKTc" x1="32" x2="32" y1="6.362" y2="56.559" gradientUnits="userSpaceOnUse"><stop offset="0" stop-color="#E090F0"/><stop offset="1" stop-color="#05BDF5"/></linearGradient><path fill="url(#x7~3hMPhOk8T~ohsNIvKTc)" d="M31.999,42c0.016,0,0.032,0,0.048,0c5.514-0.026,9.979-4.533,9.953-10.047 C41.974,26.455,37.493,22,32.001,22c-0.016,0-0.032,0-0.048,0c-5.514,0.026-9.979,4.533-9.953,10.047 C22.026,37.545,26.507,42,31.999,42z M31.963,24c0.013,0,0.025,0,0.038,0c4.394,0,7.979,3.564,7.999,7.963 c0.021,4.411-3.551,8.017-7.963,8.037c-0.013,0-0.025,0-0.038,0c-4.394,0-7.979-3.564-7.999-7.963 C23.979,27.626,27.551,24.021,31.963,24z"/></svg>